<?xml version="1.0" standalone="no"?>
<!DOCTYPE svg PUBLIC "-//W3C//DTD SVG 20010904//EN"
 "http://www.w3.org/TR/2001/REC-SVG-20010904/DTD/svg10.dtd">
<svg version="1.0" xmlns="http://www.w3.org/2000/svg"
 width="300.000000pt" height="300.000000pt" viewBox="0 0 300.000000 300.000000"
 preserveAspectRatio="xMidYMid meet">
<metadata>
Created by potrace 1.10, written by Peter Selinger 2001-2011
</metadata>
<g transform="translate(0.000000,300.000000) scale(0.100000,-0.100000)"
fill="#000000" stroke="none">
<path d="M1386 1914 c-47 -48 -34 -130 26 -156 15 -7 28 -16 28 -19 0 -4 -15
-47 -34 -96 -39 -101 -66 -128 -126 -128 -43 0 -76 25 -111 82 l-20 32 20 20
c63 63 -34 155 -99 96 -39 -36 -16 -115 35 -115 15 0 17 -6 11 -37 -3 -21 -6
-57 -6 -80 0 -78 -68 -109 -126 -59 -26 22 -27 24 -11 40 39 39 6 116 -48 116
-39 0 -79 -44 -71 -78 8 -32 40 -62 67 -62 13 0 21 -11 29 -37 58 -210 79
-278 86 -278 5 0 50 7 99 15 163 27 619 17 725 -15 12 -4 25 28 60 155 40 148
46 160 67 160 32 0 63 34 63 70 0 65 -79 94 -119 44 -25 -32 -26 -52 -5 -82
15 -22 15 -25 -7 -48 -29 -31 -78 -32 -105 -3 -14 16 -20 40 -22 99 -4 76 -4
77 22 84 54 14 55 100 0 124 -44 21 -94 -13 -94 -63 0 -18 7 -38 15 -45 21
-17 19 -25 -15 -75 -40 -58 -90 -75 -142 -51 -19 9 -40 27 -46 39 -11 20 -72
178 -72 184 0 2 7 3 16 3 8 0 29 13 45 29 21 22 29 39 29 66 0 83 -105 127
-164 69z m104 -34 c23 -23 24 -33 10 -60 -19 -35 -45 -42 -74 -19 -30 23 -33
54 -9 81 21 24 48 23 73 -2z m-352 -188 c2 -14 -2 -22 -12 -22 -19 0 -29 17
-22 36 8 22 30 12 34 -14z m670 5 c4 -21 -25 -34 -40 -19 -8 8 -8 16 2 27 16
19 34 15 38 -8z m-321 -124 c48 -100 140 -127 221 -66 18 14 34 23 36 22 1 -2
8 -23 14 -46 15 -51 62 -93 104 -93 30 0 30 -1 24 -37 -3 -21 -14 -63 -23 -93
-16 -48 -21 -55 -43 -53 -14 0 -79 7 -145 13 -124 13 -437 8 -545 -9 -33 -5
-60 -5 -67 1 -13 11 -39 84 -49 141 l-6 37 35 0 c47 0 95 46 103 101 4 21 10
39 13 39 4 0 22 -11 40 -24 19 -14 46 -28 62 -31 64 -14 143 41 169 119 6 20
16 36 20 36 5 0 22 -26 37 -57z m-542 -23 c4 -6 1 -18 -6 -26 -11 -13 -14 -13
-27 0 -8 8 -11 19 -8 25 9 14 33 14 41 1z m1055 -9 c0 -19 -23 -35 -34 -24
-14 15 -5 43 14 43 13 0 20 -7 20 -19z"/>
<path d="M1165 1136 c-66 -6 -119 -14 -117 -18 1 -5 2 -21 2 -37 0 -28 0 -28
43 -19 76 16 485 22 622 9 70 -7 129 -11 130 -9 2 2 5 17 7 33 l3 30 -130 12
c-159 14 -399 14 -560 -1z"/>
<path d="M1113 1043 c-35 -2 -63 -8 -63 -13 0 -4 43 -11 95 -15 116 -9 691 -2
701 8 4 4 4 10 0 14 -7 8 -632 13 -733 6z"/>
</g>
</svg>
